<?xml version="1.0" standalone="no"?><!DOCTYPE svg PUBLIC "-//W3C//DTD SVG 1.1//EN" "http://www.w3.org/Graphics/SVG/1.1/DTD/svg11.dtd"><svg t="1697863323540" class="icon" viewBox="0 0 1024 1024" version="1.1" xmlns="http://www.w3.org/2000/svg" p-id="2806" xmlns:xlink="http://www.w3.org/1999/xlink" width="200" height="200"><path d="M783.405995 212.180142H231.368617l9.225223 239.855813H774.918789zM204.615469 488.936849l-11.623782-313.657601h628.791238l-11.623782 313.657601z m48.524676 313.657601l3.136576 84.410796a36.900894 36.900894 0 0 0 36.900894 35.51711h428.419382a36.900894 36.900894 0 0 0 36.900894-35.51711l3.044324-84.410796z m542.166388 85.794579a73.801789 73.801789 0 0 1-73.801788 71.034222H293.177615a73.801789 73.801789 0 0 1-73.801789-71.034222L214.855467 765.693556h585.063678z" fill="#13227a" p-id="2807"></path><path d="M382.93904 479.711625a129.15313 129.15313 0 0 1 258.30626 0h-27.675671a101.477459 101.477459 0 0 0-202.954918 0z" fill="#13227a" p-id="2808"></path><path d="M212.180152 101.477459a18.450447 18.450447 0 0 0-18.450447 18.450447v36.900895a18.450447 18.450447 0 0 0 18.450447 18.450447h590.414308a18.450447 18.450447 0 0 0 18.450447-18.450447v-36.900895a18.450447 18.450447 0 0 0-18.450447-18.450447z m0-36.900894h590.414308a55.351341 55.351341 0 0 1 55.351341 55.351341v36.900895a55.351341 55.351341 0 0 1-55.351341 55.351341H212.180152a55.351341 55.351341 0 0 1-55.351341-55.351341v-36.900895a55.351341 55.351341 0 0 1 55.351341-55.351341z" fill="#13227a" p-id="2809"></path><path d="M728.792671 36.900894H285.98194a36.900894 36.900894 0 0 0-35.701615 27.675671h514.213962A36.900894 36.900894 0 0 0 728.792671 36.900894zM285.98194 0h442.810731a73.801789 73.801789 0 0 1 73.801789 73.801789v27.67567H212.180152V73.801789a73.801789 73.801789 0 0 1 73.801788-73.801789zM284.136896 978.519463a9.225224 9.225224 0 0 0 9.225223 8.579458h428.142626a9.225224 9.225224 0 0 0 9.225223-8.579458l1.383784-19.096212H282.753112zM771.689961 922.522356l-4.151351 58.672422a46.126118 46.126118 0 0 1-46.126117 42.805037H293.269867a46.126118 46.126118 0 0 1-46.126118-42.805037l-4.059098-58.672422zM190.22412 562.738637A11.900538 11.900538 0 1 1 175.279258 581.189084a59.318188 59.318188 0 1 0 0 92.990254 11.900538 11.900538 0 0 1 14.668105 18.450447 83.027012 83.027012 0 1 1 0-130.167904z" fill="#13227a" p-id="2810"></path><path d="M182.843941 571.594852m-11.900538 0a11.900538 11.900538 0 1 0 23.801076 0 11.900538 11.900538 0 1 0-23.801076 0Z" fill="#13227a" p-id="2811"></path><path d="M182.567184 683.312309m-11.900538 0a11.900538 11.900538 0 1 0 23.801077 0 11.900538 11.900538 0 1 0-23.801077 0Z" fill="#13227a" p-id="2812"></path><path d="M701.117001 544.28819h100.554937a11.900538 11.900538 0 0 1 11.900538 11.900539 11.900538 11.900538 0 0 1-11.900538 11.900538H701.117001a11.900538 11.900538 0 0 1-11.900539-11.900538A11.900538 11.900538 0 0 1 701.117001 544.28819zM701.117001 615.414664h100.554937A11.900538 11.900538 0 0 1 813.572476 627.315202a11.900538 11.900538 0 0 1-11.900538 11.900539H701.117001A11.900538 11.900538 0 0 1 689.031958 627.315202 11.900538 11.900538 0 0 1 701.117001 615.414664zM701.117001 686.63339h100.554937a11.900538 11.900538 0 0 1 11.900538 11.900538A11.900538 11.900538 0 0 1 801.671938 710.342214H701.117001a11.900538 11.900538 0 0 1-11.900539-11.900538A11.900538 11.900538 0 0 1 701.117001 686.63339z" fill="#13227a" p-id="2813"></path><path d="M701.117001 544.28819a11.900538 11.900538 0 0 1 11.900538 11.900539v142.252947A11.900538 11.900538 0 0 1 701.117001 710.342214a11.900538 11.900538 0 0 1-11.900539-11.900538V556.188729A11.900538 11.900538 0 0 1 701.117001 544.28819z" fill="#13227a" p-id="2814"></path><path d="M855.547243 544.28819h100.831694A11.900538 11.900538 0 0 1 968.648484 556.188729a11.900538 11.900538 0 0 1-11.900538 11.900538H855.547243a11.900538 11.900538 0 0 1-11.900538-11.900538A11.900538 11.900538 0 0 1 855.547243 544.28819z" fill="#13227a" p-id="2815"></path><path d="M855.547243 615.414664h100.831694A11.900538 11.900538 0 0 1 968.648484 627.315202a11.900538 11.900538 0 0 1-11.900538 11.900539H855.547243A11.900538 11.900538 0 0 1 843.738957 627.315202a11.900538 11.900538 0 0 1 11.808286-11.900538z" fill="#13227a" p-id="2816"></path><path d="M855.547243 686.63339h100.831694A11.900538 11.900538 0 0 1 968.648484 698.441676 11.900538 11.900538 0 0 1 956.378937 710.342214H855.547243a11.900538 11.900538 0 0 1-11.900538-11.900538 11.900538 11.900538 0 0 1 11.900538-11.808286z" fill="#13227a" p-id="2817"></path><path d="M855.547243 544.28819A11.900538 11.900538 0 0 1 867.171025 556.188729v142.252947A11.900538 11.900538 0 0 1 855.547243 710.342214a11.900538 11.900538 0 0 1-11.900538-11.900538V556.188729A11.900538 11.900538 0 0 1 855.547243 544.28819z" fill="#13227a" p-id="2818"></path><path d="M391.518498 544.28819h100.739441a11.900538 11.900538 0 0 1 11.900539 11.900539 11.900538 11.900538 0 0 1-11.900539 11.900538H391.518498a11.900538 11.900538 0 0 1-11.900538-11.900538A11.900538 11.900538 0 0 1 391.518498 544.28819zM391.518498 615.414664h100.739441A11.900538 11.900538 0 0 1 504.158478 627.315202a11.900538 11.900538 0 0 1-11.900539 11.900539H391.518498A11.900538 11.900538 0 0 1 379.61796 627.315202a11.900538 11.900538 0 0 1 11.900538-11.900538z" fill="#13227a" p-id="2819"></path><path d="M391.518498 544.28819a11.900538 11.900538 0 0 1 11.900538 11.900539v142.252947A11.900538 11.900538 0 0 1 391.518498 710.342214a11.900538 11.900538 0 0 1-11.900538-11.900538V556.188729A11.900538 11.900538 0 0 1 391.518498 544.28819z" fill="#13227a" p-id="2820"></path><path d="M546.133245 544.28819h100.831693a11.900538 11.900538 0 0 1 11.900539 11.900539 11.900538 11.900538 0 0 1-11.900539 11.900538H546.133245a11.900538 11.900538 0 0 1-11.900538-11.900538A11.900538 11.900538 0 0 1 546.133245 544.28819z" fill="#13227a" p-id="2821"></path><path d="M546.133245 615.414664h100.831693A11.900538 11.900538 0 0 1 658.865477 627.315202a11.900538 11.900538 0 0 1-11.900539 11.900539H546.133245A11.900538 11.900538 0 0 1 534.324959 627.315202a11.900538 11.900538 0 0 1 11.808286-11.900538z" fill="#13227a" p-id="2822"></path><path d="M546.133245 544.28819a11.900538 11.900538 0 0 1 11.900538 11.900539v142.252947A11.900538 11.900538 0 0 1 546.133245 710.342214a11.900538 11.900538 0 0 1-11.900538-11.900538V556.188729A11.900538 11.900538 0 0 1 546.133245 544.28819z" fill="#13227a" p-id="2823"></path><path d="M287.181219 544.28819a62.270259 62.270259 0 0 1 62.27026 62.270259v41.513506a62.270259 62.270259 0 0 1-124.540519 0v-41.513506A62.270259 62.270259 0 0 1 287.181219 544.28819z m0 23.708825A38.561434 38.561434 0 0 0 249.081046 606.558449v41.513506a38.561434 38.561434 0 1 0 77.122869 0v-41.513506a38.561434 38.561434 0 0 0-39.022696-38.561434z" fill="#13227a" p-id="2824"></path><path d="M337.643192 627.315202m-11.900538 0a11.900538 11.900538 0 1 0 23.801077 0 11.900538 11.900538 0 1 0-23.801077 0Z" fill="#13227a" p-id="2825"></path><path d="M236.811499 627.315202m-11.900539 0a11.900538 11.900538 0 1 0 23.801077 0 11.900538 11.900538 0 1 0-23.801077 0Z" fill="#13227a" p-id="2826"></path></svg>